# Blender 5.0.1
# www.blender.org
mtllib sharpstar.mtl
o sharpstar
v 0.000000 0.671875 0.468750
v 0.000000 -0.328125 0.718750
v 0.000000 -0.828125 -0.031250
v 0.000000 -0.328125 -0.781250
v 0.000000 0.671875 -0.531250
v 0.500000 0.000000 0.000000
v 0.000000 -1.328125 -1.031250
v 0.000000 -1.328125 0.968750
v 0.000000 0.421875 1.468750
v 0.000000 1.671875 -0.031250
v 0.000000 0.421875 -1.531250
v -0.500000 0.000000 0.000000
vn -1.0000 -0.0000 -0.0000
vn 0.8238 -0.5070 0.2535
vn 0.8050 0.1439 -0.5756
vn 0.7773 0.1526 0.6104
vn 0.8336 -0.4940 -0.2470
vn 0.8372 0.5305 0.1326
vn 0.8287 -0.3958 0.3958
vn 0.8213 0.2552 0.5103
vn 0.8405 0.2423 -0.4846
vn 0.8433 -0.3801 -0.3801
vn 0.8421 0.5232 -0.1308
vn -0.8238 -0.5070 0.2535
vn -0.8050 0.1439 -0.5756
vn -0.7773 0.1526 0.6104
vn -0.8336 -0.4940 -0.2470
vn -0.8372 0.5305 0.1326
vn -0.8287 -0.3958 0.3958
vn -0.8213 0.2552 0.5103
vn -0.8405 0.2423 -0.4846
vn -0.8433 -0.3801 -0.3801
vn -0.8421 0.5232 -0.1308
vt 0.593750 0.875000
vt 0.625000 0.945312
vt 0.562500 1.000000
vt 0.500000 0.945312
vt 0.531250 0.875000
vt 0.625000 1.000000
vt 0.500000 1.000000
vt 0.500000 0.875000
vt 0.625000 0.875000
s 0
usemtl sharpstar.mtl
f 5/1/1 4/2/1 3/3/1 2/4/1 1/5/1
f 6/6/2 3/7/2 7/8/2
f 7/7/3 4/8/3 6/9/3
f 7/7/1 3/9/1 4/6/1
f 6/8/4 2/9/4 8/6/4
f 8/9/5 3/6/5 6/7/5
f 8/6/1 2/7/1 3/8/1
f 6/7/6 1/8/6 9/9/6
f 9/8/7 2/9/7 6/6/7
f 9/9/1 1/6/1 2/7/1
f 10/6/8 1/7/8 6/8/8
f 10/7/1 5/8/1 1/9/1
f 6/6/9 5/9/9 10/6/9
f 6/7/10 4/8/10 11/9/10
f 11/8/11 5/9/11 6/6/11
f 11/9/1 4/6/1 5/7/1
f 7/7/12 3/8/12 12/9/12
f 12/8/13 4/9/13 7/6/13
f 8/3/14 2/2/14 12/1/14
f 12/6/15 3/5/15 8/4/15
f 9/9/16 1/8/16 12/7/16
f 12/6/17 2/7/17 9/6/17
f 12/6/18 1/8/18 10/7/18
f 10/6/19 5/8/19 12/7/19
f 11/6/20 4/8/20 12/7/20
f 12/8/21 5/8/21 11/7/21
